<?xml version="1.0" encoding="UTF-8" standalone="no"?>
<svg
   width="752.16895"
   height="611.36615"
   mapsvg:geoViewBox="23.179154 56.172064 32.779653 51.262469"
   version="1.1"
   id="svg1"
   sodipodi:docname="belgium_map_contours.svg"
   inkscape:version="1.4.2 (f4327f4, 2025-05-13)"
   xmlns:inkscape="http://www.inkscape.org/namespaces/inkscape"
   xmlns:sodipodi="http://sodipodi.sourceforge.net/DTD/sodipodi-0.dtd"
   xmlns="http://www.w3.org/2000/svg"
   xmlns:svg="http://www.w3.org/2000/svg"
   xmlns:mapsvg="http://mapsvg.com">
  <defs
     id="defs1" />
  <sodipodi:namedview
     id="namedview1"
     pagecolor="#ffffff"
     bordercolor="#000000"
     borderopacity="0.25"
     inkscape:showpageshadow="2"
     inkscape:pageopacity="0.0"
     inkscape:pagecheckerboard="0"
     inkscape:deskcolor="#d1d1d1"
     inkscape:zoom="1.3199946"
     inkscape:cx="375.75912"
     inkscape:cy="305.68307"
     inkscape:window-width="1920"
     inkscape:window-height="1009"
     inkscape:window-x="-8"
     inkscape:window-y="-8"
     inkscape:window-maximized="1"
     inkscape:current-layer="svg1" />
  <path
     d="m 468.93569,28.86607 -3.00302,1.398069 0.14014,5.171877 -4.42446,-1.886904 0.72073,-3.255643 1.87188,1.945564 1.65167,-2.375739 -1.58159,-1.03633 z M 436.473,13.888159 l 11.08116,5.846469 0.88089,6.85347 -4.16419,3.656488 1.42143,7.420519 3.17319,-0.244418 -2.18219,1.730477 -11.90199,-4.565721 -0.31031,5.142546 18.12825,1.642487 4.1642,-2.49306 6.24628,7.205431 16.25637,-15.4863 0.64065,-7.127218 4.28431,-5.240314 3.25328,4.145323 6.42647,0.391068 5.10514,11.92758 -6.34639,11.712493 11.7218,13.85359 0.53054,9.962462 5.47551,1.613157 7.26732,-3.304527 7.8479,5.064333 -2.86288,11.194327 2.24225,1.974895 v 0 l -4.08411,4.458177 -0.41041,7.909354 9.0391,11.077003 0.27027,9.98202 -5.41545,5.2892 -5.50554,-2.02378 -2.39241,5.20121 -5.17521,0.63548 v 0 l -1.5816,0.27375 v 0 l -5.52556,0.33241 -6.79684,9.60072 -16.19631,3.32408 -0.47048,5.30875 -5.62566,6.8828 v 0 l -3.02304,-3.28497 -6.0561,2.62016 v 0 h -0.91092 v 0 l -6.32637,4.55594 -15.63574,3.19698 -5.0651,-8.37863 -5.99604,4.31152 -5.39543,-0.47905 -7.00706,8.23198 1.93195,-4.76125 -4.49453,-3.109 -15.30541,4.31153 -1.17118,5.27942 -3.15318,0.63549 -6.36641,-4.06711 -3.93396,3.55872 -7.76782,-4.76126 -2.04205,5.15233 -5.21526,-4.25287 -11.2313,3.04055 -1.11112,-4.55594 -3.19322,-1.02655 1.42143,-4.94702 -7.12717,4.25287 0.64064,-3.16765 -12.89298,-4.88835 -7.96802,1.7207 v 0 l -1.46148,-1.89668 -3.89392,3.13832 -4.28431,-2.22909 1.50151,-5.30875 -2.2823,-0.99723 -2.28229,-12.0449 7.14719,-6.25709 7.10716,2.18021 12.8129,-3.4414 3.35338,-8.8577 -0.14014,-8.56439 -2.45247,-1.18298 1.42143,-4.41907 -4.24428,-1.27097 -2.7828,-14.420644 6.24629,-9.063005 -8.11817,-5.455401 -2.00202,-11.95691 -6.28633,-3.519614 v 0 l -4.08411,-6.413518 23.11327,-0.967894 1.50151,5.709596 7.92799,0.997224 9.38945,-2.708148 -9.22929,-17.11901 2.45247,-6.208207 -3.60363,-1.701147 18.45858,-9.532287 12.67277,-1.251418 1.81182,2.766807 -3.35338,7.156548 1.05106,7.909354 7.76782,-2.825467 12.50259,2.952565 5.66571,-1.124322 -0.35036,-5.504284 5.04508,-2.248642 11.58167,-14.469524 z"
     title="Antwerp"
     id="BE-VAN"
     style="stroke-width:0.789;stroke-dasharray:none;stroke:#ffffff;stroke-opacity:1" />
  <path
     d="m 303.24886,253.6814 10.69076,-7.137 4.7648,7.10767 5.51556,-0.60616 7.72778,5.8758 2.90292,-3.1481 h 8.62869 l 1.55156,-6.1691 4.0741,1.04611 -2.04205,-3.50006 2.02203,-1.85758 3.25328,5.21099 4.18421,0.088 v 0 -3.74448 0 l 23.48365,-7.99734 -0.17017,3.92045 6.36641,4.4093 0.13013,-3.39252 9.5396,-2.39529 4.05409,-5.06433 1.67168,6.83391 5.90595,-0.44973 4.12415,-3.9009 -3.50353,-5.00567 1.01102,-8.03646 9.77985,2.94279 3.63365,-1.92601 0.78079,2.04333 1.85187,-3.93023 6.87692,-1.37852 6.11616,2.48329 4.16419,6.48195 4.41445,0.27375 0.04,3.83247 12.29237,-1.70115 v 0 h 1.4815 v 0 l -0.02,5.69004 3.63365,1.98467 11.06114,-8.06578 7.30736,5.93446 v 0 l -0.68069,5.25009 -4.5746,2.54195 4.64467,6.31575 -3.05307,2.49306 0.2002,9.00434 -3.66369,6.85347 v 0 l -6.27632,-1.43717 -4.64467,5.98334 -5.59564,-0.47906 0.29029,2.06288 -22.07222,6.24732 0.75076,3.34363 -4.14418,-3.37296 -5.17521,3.79336 -1.87188,-6.48195 -4.01404,0.71369 -1.69171,4.18443 -7.82788,-3.67604 -1.71172,4.1551 2.6827,7.8507 -4.7648,1.85757 -8.50857,-2.71792 -5.00504,2.29752 0.56057,5.94424 v 0 l -12.77286,4.62438 -2.14216,-4.24309 -4.98502,0.81147 -1.75176,2.73747 0.6006,-9.10211 -3.85388,1.23187 -7.39745,-3.16766 -10.52059,0.80169 -5.03507,5.52384 0.6006,-7.19565 -6.28633,0.0587 -5.74578,-7.99735 -5.10514,-0.0684 1.1912,-6.4233 -10.3204,-2.29752 0.85086,-6.82414 -4.5746,-4.5755 -7.51757,8.91635 -7.17723,-0.11732 -2.94296,-6.12999 0.54054,-14.76283 3.68371,-0.95811 z"
     title="Walloon Brabant"
     id="BE-WBR"
     style="stroke-width:0.789;stroke-dasharray:none;stroke:#ffffff;stroke-opacity:1" />
  <path
     d="m 366.86291,196.02817 0.78079,0.56705 v 0 l 1.38139,5.08388 -2.86288,3.36319 7.26732,4.72215 2.93295,8.79903 -4.74478,2.97212 0.76077,2.13132 v 0 l 3.09311,0.33241 v 0 l 3.69372,3.90091 -2.76278,0.23464 v 0 l -2.53255,1.05588 v 0 l -15.22533,6.92191 -9.88996,-3.23609 -5.43547,-11.09656 -4.53457,1.31985 -6.59664,-3.24586 v 0 l -0.4905,0.47906 v 0 l -0.12012,-0.36174 v 0 l 1.97199,-2.49306 v 0 l 0.56056,-2.69837 5.00504,-0.24442 -0.5005,-9.21943 3.26329,-4.72215 v 0 l 3.35337,-3.03078 v 0 l 1.07108,-0.60615 v 0 l 2.7828,-1.92602 v 0 l 1.25126,-0.26397 v 0 l 7.23729,1.29053 v 0 l 4.15418,-4.51684 v 0 l 2.52254,1.80869 v 0 l 1.99201,1.31986 v 0 z"
     title="Brussels Capital Region"
     id="BE-BRU"
     style="stroke-width:0.789;stroke-dasharray:none;stroke:#ffffff;stroke-opacity:1" />
  <path
     d="m 178.53328,235.36963 6.6567,3.03078 8.66873,-2.014 0.64065,9.25853 13.32341,0.44973 2.86289,2.96234 v 0 l 1.07107,0.33241 v 0 l 9.2293,-15.40808 6.40645,-2.91346 0.80081,4.35063 8.66872,-4.07688 -0.95095,3.00144 4.16419,7.04901 6.96701,-0.69415 5.49554,2.58105 7.96802,-2.87435 3.15318,5.60205 v 0 l -1.15116,6.77526 4.26429,5.69004 8.27834,0.62571 v 0 h 1.30131 v 0 l 17.3875,-3.77381 1.71173,2.16065 5.04508,-6.1691 v 0 0.69415 0 l 2.76278,1.68159 v 0 l 2.49251,0.33241 -3.68371,0.95812 -0.54054,14.75305 2.94296,6.12999 7.18724,0.11732 7.51757,-8.91635 4.5746,4.57549 -0.86086,6.81437 10.32039,2.29752 -1.1912,6.4233 5.10514,0.0587 5.74578,8.00712 6.28633,-0.0587 -0.6006,7.19565 5.04508,-5.52384 10.51058,-0.80169 7.39745,3.16766 3.85388,-1.22209 -0.6006,9.10211 1.75176,-2.74725 4.98502,-0.80169 2.14216,4.23331 12.77286,-4.62438 v 0 l -3.7738,11.4583 v 0 0.98744 0 l 0.76076,3.12855 6.03608,-3.04056 -1.56157,1.81847 2.63265,5.96379 -5.45549,9.59095 8.91898,5.00567 -2.67269,6.4624 -3.64367,1.19276 3.974,3.87158 -3.1732,1.45673 -1.71172,6.68726 2.67269,9.151 -14.58468,3.17743 -2.90293,-3.80314 -4.10413,0.0587 -4.57461,6.9219 -10.88095,-1.77936 -0.95096,4.48751 -5.47551,1.33941 -2.12214,4.8688 -5.84589,-0.53772 -8.07813,6.40374 11.20128,8.51551 4.22425,-4.65371 1.89191,1.06566 v 0 h 1.91192 v 0 l 2.76278,1.95534 v 0 l -0.16016,1.007 v 0 l -0.39039,4.85903 v 0 h -0.68069 v 0 l 0.45046,8.41774 -6.59664,4.62438 7.49754,13.46252 -2.8829,4.29198 0.93094,17.0799 3.66369,1.24164 0.93094,14.07845 5.85589,11.94714 -2.31233,4.7417 v 0 l -15.94605,-3.36319 -8.1382,-4.7417 -22.22237,3.8618 -0.56057,-4.1551 -9.67974,-2.53217 3.91394,-6.37441 -5.0651,-5.4554 4.6747,-8.4764 6.44649,-0.35196 7.20726,-5.8758 -6.42647,-10.67616 0.54055,-8.16355 -9.08916,-0.14665 0.23024,2.07266 -5.12517,-2.13132 5.17522,-8.75993 -0.84085,-14.75305 4.30433,-0.97767 9.40948,-10.85214 -2.47249,-5.72915 -5.956,-0.97767 -3.03305,-4.09644 -2.43245,4.21376 3.3834,4.95679 -5.7658,0.088 -4.03406,-13.50163 -4.05409,-3.08944 -3.85388,0.88968 -10.09016,-14.29354 -7.31736,4.84924 -2.61263,-1.60337 -1.01102,2.02377 -0.16016,-2.1411 -12.77286,6.38419 -10.11018,-7.45962 -4.67471,-0.14665 -2.30232,2.64948 -1.30131,-3.1481 -11.7218,0.91902 -2.6827,2.3464 -0.82083,8.91636 -4.03406,-2.17043 1.71172,4.12577 -1.8919,0.47906 -6.71677,-8.78926 -2.983,-10.37308 3.23325,-9.9038 -2.92294,-15.89693 -10.14021,-11.74182 -4.92496,1.64249 -2.84286,-2.95257 -13.26336,3.94001 -0.89089,-3.40229 4.44447,-7.43029 -8.58865,-2.86458 -5.33537,7.96802 -2.00201,-1.16343 -11.88197,5.72915 -2.84286,-3.81292 -13.61371,-6.08111 -2.45247,-4.26264 0.02,-16.87459 -7.72778,-18.74195 5.0651,-5.50428 -2.41243,-3.83247 1.52153,-3.71515 -13.18327,-6.67749 1.21122,-3.23609 -4.20423,-6.44284 v 0 l 8.25831,-3.06011 8.25832,4.29197 8.50856,-1.04611 3.64367,10.12867 6.87693,3.59783 9.0391,-11.02813 5.41545,-0.78213 v 0 -1.17321 0 z m -116.267065,18.12601 1.361371,-1.74025 -5.625665,-6.74593 2.042056,-1.65226 -1.851864,-2.90369 5.195231,-2.94278 1.711723,1.65226 0.06006,-2.16065 3.373397,2.61038 5.15519,-1.23187 -0.120121,-2.27797 7.807862,-2.7277 -4.614646,-5.94424 12.402488,-5.07411 2.802822,2.27798 -1.211219,6.03222 4.074102,0.8408 -2.042056,2.10199 v 0 l -8.218275,6.65794 -7.267318,2.00422 1.23124,3.95957 -7.047096,11.43874 z"
     title="Hainaut"
     id="BE-WHT"
     style="stroke-width:0.789;stroke-dasharray:none;stroke:#ffffff;stroke-opacity:1" />
  <path
     d="m 613.53129,221.98532 1.56157,8.81859 -3.58361,7.26409 v 0 l 6.17622,3.20676 v 0 l 0.95096,0.11732 v 0 l 2.67269,-2.42462 2.47249,1.79891 v 0 l 0.27027,0.8408 v 0 h 7.45751 l 7.02707,9.85491 7.72779,-0.92878 4.22425,2.16065 5.45549,-7.61605 -3.56359,-6.26687 v 0 l 4.83487,1.34918 8.65872,-3.52939 3.76379,2.78636 7.72778,-0.50838 4.20424,3.29474 -0.3904,7.67472 1.1912,-2.8548 13.84394,1.79891 12.93302,21.28389 -2.75277,2.48328 2.90293,3.20676 -1.32134,1.75981 4.01405,-1.9749 13.82392,1.94557 -4.94498,11.17477 -3.54357,-0.32263 -9.57965,9.7376 0.44045,4.56572 3.44346,1.54472 -1.47148,3.07966 3.7738,1.70115 3.52355,7.6356 8.58865,-2.95256 15.63574,4.91768 -1.98199,7.89958 6.10614,2.34641 0.86087,5.48473 -6.8569,16.75727 12.85294,13.31587 -0.58059,3.80314 -8.17823,2.40507 -0.24024,3.06011 -5.62567,-5.55317 -4.88492,1.12432 -5.29533,15.3201 -12.60269,2.93301 -3.54357,5.78781 -4.00403,0.68437 -1.85186,4.26264 4.67471,11.2921 -8.70877,2.16065 -2.53255,6.42329 4.0741,3.46096 -2.80282,3.64671 -5.22527,-1.77936 2.45247,-3.84225 -2.2923,-5.15232 -6.2563,-1.45673 -0.2903,4.4484 -3.67369,0.8799 -5.80585,-3.16765 -1.28129,-5.76825 v 0 l 1.84185,-6.69705 -4.08411,0.088 -0.58058,-32.24357 -5.22526,-1.90646 -0.78079,-2.81569 -22.72288,-5.08388 -2.21223,5.97356 3.50353,3.89113 -4.67471,9.85492 v 0 h 1.03104 v 0 l 5.956,0.44973 -7.6477,5.54339 -5.94599,-1.03633 -0.72073,2.93301 -1.61162,-3.07966 -6.28633,-0.91901 -8.39845,1.89668 4.85488,-11.72227 -4.54457,-0.088 -4.22426,-8.29065 3.50353,-8.37863 -9.68975,0.35196 0.87087,-3.5685 -8.48855,-0.80169 -7.76782,-8.20265 -10.98105,1.95534 -4.79483,-9.66916 -8.54861,5.24031 -9.24931,-6.60905 -2.74276,5.06433 v 0 h 3.07309 v 0 l 1.50151,3.39252 -7.06711,6.6286 v 0 l -8.1382,-2.67881 -10.55062,6.90235 -3.15318,-3.83247 1.12113,-4.70259 -10.14021,-2.91346 -2.61263,-3.90091 2.71273,-6.4624 -7.36742,-12.24043 -6.81686,3.09921 -2.45247,-4.26264 1.99201,-1.5545 -5.31536,-0.88968 -0.94094,-3.66626 2.45247,-2.74725 -4.84488,2.50283 -4.2643,-3.09921 -0.41041,-4.74171 -11.10118,-0.77236 3.39342,-2.32685 -1.0911,-5.94424 -3.99402,-8.30042 -9.39946,-8.90658 1.01101,-7.20543 v 0 l 3.66369,-6.85347 -0.2002,-9.00434 3.05307,-2.49306 -4.64467,-6.31575 4.5746,-2.54195 0.68069,-5.25009 v 0 l 5.15519,3.08944 -0.48048,4.73193 4.965,5.12299 6.05609,-0.59638 v 0 l 12.63272,3.97912 2.98301,-2.62994 -2.49251,-3.08943 1.30131,-2.81569 10.8309,1.94556 1.63165,-2.81569 3.89392,3.48051 3.46349,-3.93024 5.47551,3.62716 8.66873,-8.83814 7.39745,-0.56705 5.99603,8.68171 5.70575,-0.2933 2.72274,-5.54339 3.02304,4.39952 9.14922,-5.44563 0.49049,-5.04478 v 0 l 1.10111,0.5475 v 0 l 15.05516,-5.49451 8.46853,-9.12167 6.25629,0.4204 0.44045,-2.27797 v 0 z"
     title="Liege"
     id="BE-WLG"
     style="stroke-width:0.789;stroke-dasharray:none;stroke:#ffffff;stroke-opacity:1" />
  <path
     d="m 631.2191,234.9199 4.8649,3.68582 7.08713,-2.55172 0.97098,3.03078 6.89694,-4.43863 1.34135,4.16488 v 0 l 3.56359,6.26687 -5.45549,7.60627 -4.22425,-2.16065 -7.72779,0.92879 -7.02707,-9.85492 h -7.45751 v 0 l -0.27027,-0.8408 v 0 l -2.47249,-1.79891 -2.67269,2.42462 v 0 l -0.95096,-0.11732 v 0 l -6.17622,-3.20676 v 0 l 11.08116,-0.72347 5.58562,-6.59928 z m -48.44879,-153.435605 4.32436,3.969342 0.78078,12.856367 17.61774,7.293426 1.26127,3.84224 20.80095,0.4204 2.2823,9.67894 9.10917,-4.8688 5.89593,7.19565 -8.81887,8.00712 4.34437,6.04201 -7.02708,1.96512 0.84085,9.08255 -5.08512,-0.36173 -3.05307,8.6035 3.52354,3.22631 -1.93194,7.65516 -8.81888,10.69571 1.50151,2.22909 4.40444,-1.44695 1.23124,2.92323 -6.71677,12.27955 -4.51454,-0.33241 -4.12416,8.80881 -6.54659,2.8548 0.86087,13.24743 7.55761,4.59505 v 0 l -0.45046,2.27797 -6.24628,-0.42039 -8.46853,9.12166 -15.05516,5.48473 v 0 l -1.11112,-0.53772 v 0 l -0.49049,5.03501 -9.14922,5.4554 -3.02304,-4.40929 -2.72274,5.54339 -5.70575,0.30307 -5.99603,-8.69149 -7.39745,0.56705 -8.66873,8.83814 -5.47551,-3.62715 -3.46349,3.92046 -3.89392,-3.47074 -1.63165,2.8157 -10.85092,-1.92601 -1.30131,2.81569 2.49251,3.08943 -2.98301,2.63971 -12.64273,-3.97911 v 0 l 3.75378,-7.93869 -3.52354,-1.76958 1.21122,-4.7026 v 0 l 1.62163,-2.04333 v 0 l -1.30131,-6.71659 8.29835,-6.78504 v 0 l -1.38139,-0.0587 v 0 l -2.983,-1.5936 1.1912,-10.08956 3.56359,-9.17055 4.32435,0.56705 1.81183,-7.99734 -3.68371,-2.9819 -6.11616,0.14665 -0.60061,-2.49306 v 0 l -3.974,1.47628 v 0 l -4.03406,2.22909 -2.65267,-3.7347 -2.51253,1.41762 -4.28432,-7.7627 6.58664,-5.24031 0.64064,-7.74315 8.87894,-3.43163 -1.75176,-7.08811 2.14216,-1.05588 0.41041,2.59082 5.50554,-2.62015 -7.8479,-7.7236 -7.39745,0.90923 0.64065,6.9708 -4.90494,2.71792 -2.74276,-2.9819 -3.99403,1.3883 -2.59261,-5.84647 -5.58562,1.38829 v 0 l 5.62566,-6.8828 0.47048,-5.30875 16.19631,-3.32408 6.79684,-9.60073 5.52556,-0.3324 v 0 l 1.5816,-0.27375 v 0 l 5.17521,-0.63549 2.39241,-5.2012 5.50554,2.02377 5.41545,-5.28919 -0.27027,-9.98202 -9.0391,-11.077006 0.41041,-7.909354 4.08411,-4.458178 v 0 l 19.11926,-0.488835 1.93194,-3.695594 13.92402,3.636934 13.35345,-11.556065 5.93597,1.515389 z"
     title="Limburg"
     id="BE-VLI"
     style="stroke-width:0.789;stroke-dasharray:none;stroke:#ffffff;stroke-opacity:1" />
  <path
     d="m 555.33269,351.53643 7.06711,-6.6286 -1.50151,-3.39252 v 0 h -3.07309 v 0 l 2.74276,-5.06433 9.24931,6.60905 8.54861,-5.24031 4.79483,9.66916 10.98105,-1.95534 7.76782,8.20265 8.48855,0.80169 -0.87087,3.5685 9.68975,-0.35196 -3.50353,8.37863 4.22426,8.29065 4.54457,0.088 -4.85488,11.72227 8.39845,-1.89668 6.28633,0.91901 1.61162,3.07966 0.72073,-2.93301 5.94599,1.03633 7.6477,-5.54339 -5.956,-0.44973 v 0 h -1.03104 v 0 l 4.67471,-9.85492 -3.50353,-3.89113 2.21223,-5.97356 22.72288,5.08388 0.78079,2.81569 5.22526,1.90646 0.58058,32.24357 4.08411,-0.088 -1.84185,6.69705 v 0 l -11.30138,3.05033 -1.10111,12.22088 -12.4125,5.79758 -1.86187,10.07979 -6.44649,5.55317 2.95297,3.63693 -1.90191,5.2892 -7.92799,4.81014 3.39342,9.37586 -5.88593,5.19143 -6.01606,0.74302 -2.53255,13.11057 -5.33537,5.06433 9.48956,6.0029 -1.85187,3.41207 -3.78381,-1.49584 1.03104,4.55594 -2.64266,1.03633 2.20222,1.81847 -3.45348,3.26542 2.69271,13.28654 6.59664,-1.26119 8.11818,14.11756 -0.77078,7.25431 7.45751,-0.93856 4.00403,4.89813 -4.00403,9.52251 8.8389,3.72492 -0.88089,7.79204 -3.71374,0.61593 -2.40241,7.87025 -5.09513,3.65649 0.76076,2.55172 3.52355,-0.17599 0.02,3.99868 -5.72577,6.08111 -4.7748,2.25842 -11.10118,-4.85903 -2.60262,6.66772 -18.73887,-3.65649 -6.63668,6.66771 -0.84085,6.21799 -3.7738,-4.49729 -6.89694,-2.13132 -2.93296,3.85202 -10.931,2.3073 -2.47249,3.21654 -4.35439,-6.01267 3.30333,-2.65927 -0.25025,-3.53916 -4.59463,-3.77381 2.53255,-4.4093 -3.29332,-0.79191 -1.75176,-7.48895 -15.67578,-10.21666 -1.982,4.07688 -4.83487,1.69137 -1.50151,-5.35763 4.91495,-7.1761 -10.81089,-11.28232 -1.81182,-1.23186 -4.63467,3.34363 -7.29735,-3.05033 -7.63769,0.70392 -0.8008,-6.56017 -6.78684,0.67459 -6.46651,-14.49885 -5.84588,0.35196 -10.921,-6.08111 -2.47249,-5.23053 -5.20524,-0.43996 v 0 l 3.74377,-6.55039 0.29029,-8.58395 13.28338,-8.85769 -2.75278,-2.82547 5.67572,-5.63138 9.27934,-3.11877 -4.24427,-4.12577 0.76076,-6.89257 -8.11817,-7.07834 -9.95002,1.18298 0.35035,-4.89813 -7.3574,-9.38563 2.99301,0.43995 1.66167,-5.04478 2.78281,1.91623 5.99603,-4.54616 0.87088,-6.67749 2.63265,-0.14665 -1.52153,-3.28498 2.67269,-10.37308 2.00202,8.80881 24.28445,-1.03633 13.37346,-4.96657 v 0 -1.18298 0 l -5.21525,-4.81991 8.17824,-4.37997 -0.66067,-3.22631 -7.12717,-8.31998 1.30131,-1.69136 -3.38341,-0.80169 2.41243,-2.78637 -7.53759,-3.19698 9.73981,-3.19698 -1.25126,-3.29475 5.53557,-2.69837 2.94296,2.04333 3.52355,-1.75003 15.886,-12.45552 -1.07108,-8.23199 -4.63467,-0.55727 -3.17319,3.64671 -1.15116,-2.69837 10.07014,-6.32553 -2.59261,-4.54616 3.85388,-4.79059 z"
     title="Luxembourg"
     id="BE-WLX"
     style="stroke-width:0.789;stroke-dasharray:none;stroke:#ffffff;stroke-opacity:1" />
  <path
     d="m 396.40266,303.1613 -0.56057,-5.94424 5.00504,-2.29752 8.50857,2.71792 4.7648,-1.85757 -2.6827,-7.8507 1.71172,-4.1551 7.82788,3.67604 1.69171,-4.18443 4.01404,-0.71369 1.87188,6.48195 5.17521,-3.79336 4.14418,3.37296 -0.75076,-3.34363 22.07222,-6.24732 -0.29029,-2.06288 5.59564,0.47906 4.64467,-5.98334 6.27632,1.43717 v 0 l -1.01101,7.20543 9.39946,8.90658 3.99402,8.30042 1.0911,5.94424 -3.39342,2.32685 11.10118,0.77236 0.41041,4.74171 4.2643,3.09921 4.84488,-2.50283 -2.45247,2.74725 0.94094,3.66626 5.31536,0.88968 -1.99201,1.5545 2.45247,4.26264 6.81686,-3.09921 7.36742,12.24043 -2.71273,6.4624 2.61263,3.90091 10.14021,2.91346 -1.12113,4.70259 3.15318,3.83247 10.55062,-6.90235 8.1382,2.67881 v 0 l 1.36137,3.50984 -3.85388,4.79059 2.59261,4.54616 -10.07014,6.32553 1.15116,2.69837 3.17319,-3.64671 4.63467,0.55727 1.07108,8.23199 -15.886,12.45552 -3.52355,1.75003 -2.94296,-2.04333 -5.53557,2.69837 1.25126,3.29475 -9.73981,3.19698 7.53759,3.19698 -2.41243,2.78637 3.38341,0.80169 -1.30131,1.69136 7.12717,8.31998 0.66067,3.22631 -8.17824,4.37997 5.21525,4.81991 v 0 1.18298 0 l -13.37346,4.96657 -24.28445,1.03633 -2.00202,-8.80881 -2.67269,10.37308 1.52153,3.28498 -2.63265,0.14665 -0.87088,6.67749 -5.99603,4.54616 -2.78281,-1.91623 -1.66167,5.04478 -2.99301,-0.43995 7.3574,9.38563 -0.35035,4.89813 9.95002,-1.18298 8.11817,7.07834 -0.76076,6.89257 4.24427,4.12577 -9.27934,3.11877 -5.67572,5.63138 2.75278,2.82547 -13.28338,8.85769 -0.29029,8.58395 -3.74377,6.55039 v 0 l -7.7478,4.23332 -15.10521,-1.75981 4.53456,-7.79203 -5.39543,-13.85359 2.65267,-0.088 5.35539,-12.50441 -7.96802,-11.39964 -10.98106,-2.92323 -0.27027,-3.12855 0.64065,-4.03778 4.92496,-3.4805 0.29029,-9.26832 4.18421,-3.65649 -4.10413,-7.94846 3.50353,-0.64526 2.53255,-10.16777 4.0741,4.01822 -0.84085,-9.37586 5.56561,-5.02522 -3.79382,-4.80037 -8.02809,-0.38129 -1.71172,-4.20398 -12.42251,9.41497 -2.45247,7.36185 -11.04112,7.87025 -2.64266,5.46518 3.79382,4.54617 -3.01303,7.4694 1.6917,8.85769 -18.41854,2.59083 -11.04112,5.1621 -3.23326,5.48473 -17.70783,2.62016 v 0 l 2.32234,-4.7417 -5.8659,-11.94714 -0.93094,-14.07845 -3.66369,-1.24164 -0.93094,-17.0799 2.8829,-4.2822 -7.49754,-13.4723 6.59664,-4.61461 -0.44045,-8.41774 v 0 h 0.68069 v 0 l 0.39039,-4.85902 v 0 l 0.15015,-1.007 v 0 l -2.76278,-1.96512 v 0 h -1.91192 v 0 l -1.8819,-1.06566 -4.22425,4.65371 -11.20128,-8.50573 8.07813,-6.41352 5.84589,0.53772 2.12214,-4.8688 5.4655,-1.32963 0.96097,-4.48751 10.88095,1.77936 4.57461,-6.92191 4.11414,-0.0587 2.90293,3.80314 14.58468,-3.17743 -2.67269,-9.15099 1.71172,-6.68727 3.1732,-1.4665 -3.96399,-3.8618 3.63366,-1.19276 2.67269,-6.4624 -8.91898,-4.9959 5.45549,-9.59095 -2.63265,-5.96379 1.56157,-1.81846 -6.03608,3.04055 -0.76076,-3.12854 v 0 -0.98745 0 z"
     title="Namur"
     id="BE-WNA"
     style="stroke-width:0.789;stroke-dasharray:none;stroke:#ffffff;stroke-opacity:1" />
  <path
     d="m 329.9057,58.606806 6.28633,3.519614 2.01203,11.95691 8.11817,5.465178 -6.2563,9.063005 2.79281,14.420637 4.24428,1.27097 -1.42143,4.41907 2.45246,1.18299 0.13014,8.55461 -3.34337,8.8577 -12.8129,3.45117 -7.10716,-2.1802 -7.14719,6.25709 2.28229,12.0449 2.27229,0.99722 -1.50151,5.30876 4.28431,2.22908 3.89392,-3.12854 1.46148,1.89668 v 0 l -0.72073,5.61183 -2.82284,1.1732 2.12213,3.94979 -6.73678,5.48473 v 0 l -2.10212,0.0587 v 0 l -5.23527,-1.86735 -3.06308,6.35486 2.59261,8.61328 v 0 l 0.991,2.22909 v 0 l -4.63467,4.30175 -8.57864,-4.42885 0.95096,7.07833 -4.63467,2.79614 2.72274,3.12855 -1.11111,3.95956 -8.36843,11.36053 5.39543,1.14388 -1.31132,13.54073 -9.06913,5.99312 -3.31334,-2.45395 -2.43245,3.71515 -7.18723,-3.08944 -3.34337,5.22076 3.89392,7.93868 -5.64568,0.92879 v 0 l -1.72174,-0.088 v 0 l -3.54356,-0.8408 v 0 l -3.15318,-5.60205 -7.95801,2.87435 -5.49554,-2.57127 -6.96701,0.68437 -4.1742,-7.04901 0.96096,-2.99167 -8.66873,4.07689 -0.8008,-4.35064 -6.40645,2.91346 -9.2293,15.40809 v 0 l -1.07107,-0.33241 v 0 l -2.86289,-2.97212 -13.3134,-0.44973 -0.64065,-9.25853 -8.66873,2.014 -6.6567,-3.03078 v 0 l 12.07216,-11.49741 -4.28432,-5.55316 2.43245,-3.36319 -11.56164,-9.72782 5.05509,-8.99457 -3.6737,-3.06011 -5.2653,3.00145 -3.21324,-2.10199 3.45348,-3.99867 -1.50151,-3.64672 5.02506,-0.0293 -2.45247,-3.24586 4.16419,-0.66482 -9.06913,-4.18443 5.8559,-2.70814 -3.38341,-4.58528 4.98502,-7.49873 -5.08512,-9.95269 v 0 h 1.17118 v 0 l 2.76278,-2.50283 -2.10211,-1.99445 -20.27042,-13.57984 8.34841,-5.43585 7.08714,-13.15945 -4.90494,-7.80181 -4.965,-1.66204 4.69473,-3.36318 -3.42345,-7.449853 6.02607,-2.874351 -3.15318,-11.370307 v 0 l 9.15922,9.063005 19.21936,-0.361738 -2.26228,-12.484852 4.32435,0.938563 4.80484,-3.275196 3.85388,2.395293 1.76178,-5.797586 20.32046,9.131442 15.98609,3.822692 3.52355,2.365962 -0.87088,12.328426 13.08318,0.99722 5.64568,-3.607601 -0.0901,6.873021 7.93799,-5.963788 1.52154,2.365958 4.41444,-1.241637 11.03111,-8.759927 8.98905,0.371515 20.7609,-15.222329 z"
     title="East Flanders"
     id="BE-VOV"
     style="stroke-width:0.789;stroke-dasharray:none;stroke:#ffffff;stroke-opacity:1" />
  <path
     d="m 474.95175,155.00512 5.58562,-1.3883 2.59261,5.84647 3.99403,-1.38829 2.74276,2.9819 4.90494,-2.71793 -0.64065,-6.97079 7.39745,-0.90923 7.8479,7.72359 -5.50554,2.62016 -0.41041,-2.59083 -2.14216,1.05589 1.75176,7.08811 -8.87894,3.43162 -0.64064,7.74315 -6.58664,5.24032 4.28432,7.7627 2.51253,-1.41762 2.65267,3.7347 4.03406,-2.22909 v 0 l 3.974,-1.47628 v 0 l 0.60061,2.49306 6.11616,-0.14665 3.68371,2.98189 -1.81183,7.99735 -4.32435,-0.56705 -3.56359,9.17055 -1.1912,10.08956 2.983,1.5936 v 0 l 1.38139,0.0587 v 0 l -8.29835,6.78503 1.30131,6.7166 v 0 l -1.62163,2.04333 v 0 l -1.21122,4.70259 3.52354,1.76959 -3.75378,7.93868 v 0 l -6.05609,0.59638 -4.965,-5.12299 0.49049,-4.73193 -5.1652,-3.08944 v 0 l -7.29735,-5.93446 -11.06114,8.06579 -3.64366,-1.9749 0.02,-5.69982 v 0 h -1.4815 v 0 l -12.28236,1.71093 -0.04,-3.84225 -4.42446,-0.27375 -4.16419,-6.48195 -6.11616,-2.49306 -6.87692,1.37851 -1.85187,3.93024 -0.78079,-2.04333 -3.64366,1.91623 -9.76984,-2.94279 -1.01102,8.03646 3.50353,5.00567 -4.12415,3.9009 -5.89594,0.44973 -1.67168,-6.83391 -4.05409,5.06433 -9.5396,2.39529 -0.14014,3.38274 -6.36641,-4.40929 0.18018,-3.93024 -23.48365,8.00712 v 0 3.74448 0 l -4.18421,-0.088 -3.25328,-5.21098 -2.02203,1.85757 2.04205,3.50984 -4.0741,-1.04611 -1.56157,6.1691 h -8.62869 l -2.90292,3.1481 -7.72778,-5.86602 -5.51556,0.59638 -4.77481,-7.09789 -10.69076,7.12722 v 0 l -2.76278,-1.6816 v 0 -0.69414 0 l -5.04508,6.1691 -1.71173,-2.16065 -17.3875,3.7738 v 0 h -1.30131 v 0 l -8.27834,-0.62571 -4.26429,-5.69004 1.15116,-6.77525 v 0 l 3.54356,0.84079 v 0 l 1.71173,0.088 v 0 l 5.64568,-0.92878 -3.89392,-7.93869 3.35338,-5.22076 7.18723,3.08944 2.43245,-3.71515 3.31334,2.46373 9.06913,-6.00289 1.30131,-13.54074 -5.39543,-1.14388 8.36843,-11.36053 1.11111,-3.96934 -2.72274,-3.12854 4.63467,-2.79614 -0.95096,-7.06856 8.58865,4.41907 4.63467,-4.30175 v 0 l -0.991,-2.22909 v 0 l -2.59261,-8.61327 3.05307,-6.35486 5.23527,1.86735 v 0 l 2.10212,-0.0587 v 0 l 6.73678,-5.48473 -2.12213,-3.94979 2.82284,-1.17321 0.72073,-5.61182 v 0 l 7.96802,-1.7207 12.89298,4.88835 -0.64064,3.16765 7.12717,-4.25287 -1.42143,4.94702 3.19322,1.02655 1.11111,4.55594 11.23131,-3.04055 5.21526,4.25287 2.04205,-5.15233 7.76782,4.76126 3.93396,-3.55872 6.36641,4.06711 3.15318,-0.63549 1.17118,-5.27942 15.30541,-4.31153 4.49453,3.109 -1.93195,4.76125 7.00706,-8.23198 5.39543,0.47905 5.99604,-4.31152 5.0651,8.37863 15.63574,-3.19698 6.32637,-4.55594 v 0 h 0.91092 v 0 l 6.0561,-2.62016 z m -124.61548,39.76185 v 0 l -1.25126,0.27375 v 0 l -2.7828,1.92601 v 0 l -1.07108,0.60616 v 0 l -3.35337,3.04055 v 0 l -3.2733,4.72215 0.51051,9.21943 -5.00504,0.24442 -0.56056,2.69837 v 0 l -1.96198,2.49306 v 0 l 0.12012,0.36174 v 0 l 0.4905,-0.47906 v 0 l 6.59664,3.24587 4.53457,-1.31986 5.43547,11.10634 9.88996,3.23609 15.22533,-6.93169 v 0 l 2.53255,-1.0461 v 0 l 2.76278,-0.24442 -3.70373,-3.90091 v 0 l -3.09311,-0.3324 v 0 l -0.76077,-2.13133 4.75479,-2.97211 -2.94296,-8.79904 -7.26732,-4.72215 2.86288,-3.36318 -1.38139,-5.08389 v 0 l -1.40141,-1.92601 v 0 l -1.982,-1.31986 v 0 l -2.53255,-1.80869 v 0 l -4.14417,4.50707 z"
     title="Flemish Brabant"
     id="BE-VBR"
     style="stroke-width:0.789;stroke-dasharray:none;stroke:#ffffff;stroke-opacity:1" />
  <path
     d="m 160.84547,54.050862 3.10313,10.35353 -4.90494,5.797586 3.32334,3.949789 -1.73174,1.182981 2.72274,7.029451 v 0 l 3.15318,11.370307 -6.02607,2.874351 3.42345,7.449853 -4.69473,3.36318 4.965,1.66204 4.90494,7.80181 -7.08714,13.15945 -8.34841,5.43585 20.27042,13.57984 2.10211,1.99445 -2.76278,2.50283 v 0 h -1.17118 v 0 l 5.08512,9.95269 -4.98502,7.49873 3.38341,4.58528 -5.8559,2.70814 9.06913,4.18443 -4.16419,0.66482 2.45247,3.24586 -5.02506,0.0293 1.50151,3.64672 -3.45348,3.99867 3.21324,2.10199 5.2653,-3.00145 3.6737,3.06011 -5.05509,8.99457 11.56164,9.72782 -2.43245,3.36319 4.28432,5.55316 -12.07216,11.49741 v 0 l -5.00504,4.37996 v 0 1.16343 0 l -5.41545,0.78214 -9.0391,11.02812 -6.86692,-3.59783 -3.64367,-10.12866 -8.50856,1.0461 -8.25832,-4.28219 -8.25831,3.05033 v 0 l -5.29534,-10.158 -4.78481,1.07544 -2.71274,-2.24864 -5.52556,6.51128 -4.55458,-2.37574 -5.085121,3.30453 -2.782802,-1.29053 v 0 l 2.042056,-2.10199 -4.064092,-0.84079 1.201209,-6.03223 -2.802822,-2.27797 -12.402488,5.07411 4.614646,5.93446 -7.807862,2.7277 0.120121,2.28775 -5.1652,1.22208 -3.363387,-2.61038 -0.06006,2.16066 -1.711723,-1.64249 -5.205241,2.93301 1.851864,2.91346 -2.042056,1.64249 5.625665,6.74592 -1.361371,1.73048 v 0 l -3.063084,-4.64394 -5.645685,2.102 -5.485524,-3.26542 -1.791804,-7.34231 -10.890966,-12.5044 -0.230232,-5.2892 -8.778839,-0.98745 -1.791805,-2.52239 -6.486531,2.88413 -3.7738,-10.72505 -3.183205,-0.44972 2.46248,-4.65372 -0.650656,-9.92335 -0.440443,-4.59505 L 9.3429262,189.68309 17.44108,181.34356 12.626232,168.41875 6.1296908,164.71338 0.28380446,138.59003 43.197014,115.13571 103.71795,74.054 l 20.9511,-8.828365 -2.74277,-6.403741 3.25328,-3.529391 -2.32234,2.49306 3.04306,3.705371 2.76279,-1.730477 -3.40343,4.194207 1.96198,-1.583827 0.31031,3.314303 1.34135,-3.734701 1.91192,1.241642 -1.30131,-2.062885 3.26329,0.821243 -1.40141,-4.614605 -1.4915,0.938564 2.33234,-2.131322 -4.59462,-1.09499 4.82486,1.163427 0.98098,5.885577 z"
     title="West Flanders"
     id="BE-VWV"
     style="stroke-width:0.789;stroke-dasharray:none;stroke:#ffffff;stroke-opacity:1" />
</svg>
